<svg width="100" height="100" fill="none" xmlns="http://www.w3.org/2000/svg"><path d="M49.999 13C35.97 13 24.56 24.41 24.56 38.437c0 14.028 11.41 25.438 25.438 25.438 14.023 0 25.438-11.41 25.438-25.438C75.437 24.41 64.022 13 49.999 13zM63.37 34.84l-4.394 5.503.481 7.192a2.3 2.3 0 01-.971 2.04 2.33 2.33 0 01-1.341.425c-.306 0-.616-.06-.902-.185l-6.244-2.65-6.24 2.65a2.304 2.304 0 01-2.242-.24 2.322 2.322 0 01-.972-2.04l.481-7.192-4.394-5.504a2.314 2.314 0 011.221-3.681l6.559-1.716 3.598-6.06c.833-1.405 3.145-1.405 3.973 0l3.598 6.06 6.563 1.715a2.317 2.317 0 011.226 3.682z" fill="#fff"/><path d="M23.983 53.436L13.308 71.97a2.319 2.319 0 00.171 2.567 2.298 2.298 0 002.433.823l13.58-3.649 3.611 13.58a2.32 2.32 0 001.93 1.697c.1.009.207.014.304.014.819 0 1.587-.435 2.003-1.157l10.096-17.473c-10.031-.851-18.652-6.646-23.453-14.935zm62.711 18.533l-10.68-18.533c-4.794 8.288-13.42 14.084-23.452 14.935l10.097 17.473a2.313 2.313 0 004.236-.56l3.612-13.579 13.58 3.65a2.3 2.3 0 002.432-.824 2.311 2.311 0 00.176-2.562z" fill="#fff"/></svg>