<svg width="100" height="100" fill="none" xmlns="http://www.w3.org/2000/svg"><path d="M18.727 40.38a17.523 17.523 0 001.568 3.723l-1.892 2.386a1.959 1.959 0 00.146 2.596l3.26 3.26a1.95 1.95 0 002.595.146l2.371-1.877a17.226 17.226 0 003.87 1.637L31 55.302c.116.989.95 1.73 1.939 1.73h4.611c.989 0 1.823-.741 1.939-1.73l.34-2.943a17.429 17.429 0 004.147-1.676L46.27 52.5a1.96 1.96 0 002.595-.147l3.26-3.26a1.95 1.95 0 00.147-2.595l-1.785-2.263a17.022 17.022 0 001.707-4.078l2.75-.317a1.954 1.954 0 001.73-1.938V33.29c0-.988-.741-1.823-1.73-1.938l-2.71-.317a17.13 17.13 0 00-1.638-4.032l1.668-2.108a1.959 1.959 0 00-.147-2.596l-3.251-3.251a1.95 1.95 0 00-2.596-.147l-2.046 1.622a17.19 17.19 0 00-4.24-1.777l-.31-2.649a1.954 1.954 0 00-1.938-1.73h-4.611c-.99 0-1.823.742-1.94 1.73l-.308 2.65a17.091 17.091 0 00-4.349 1.838L24.404 18.9a1.959 1.959 0 00-2.595.147l-3.26 3.26a1.95 1.95 0 00-.146 2.594l1.776 2.248a16.799 16.799 0 00-1.606 4.07l-2.843.325c-.988.116-1.73.95-1.73 1.938v4.612c0 .988.742 1.822 1.73 1.938l2.997.348zm16.707-12.474c4.202 0 7.623 3.422 7.623 7.623 0 4.202-3.421 7.624-7.623 7.624s-7.624-3.422-7.624-7.624c0-4.201 3.422-7.623 7.624-7.623z" fill="#fff"/><path d="M81.02 41.515l-2.433-2.054a1.925 1.925 0 00-2.564.07l-1.344 1.258a13.888 13.888 0 00-3.584-1.158l-.379-1.854a1.942 1.942 0 00-2.054-1.545l-3.175.27a1.934 1.934 0 00-1.768 1.862l-.062 1.885a13.929 13.929 0 00-3.422 1.8l-1.606-1.067a1.93 1.93 0 00-2.541.363l-2.055 2.449a1.925 1.925 0 00.07 2.564l1.405 1.498a14.397 14.397 0 00-1.035 3.43l-2.008.41a1.942 1.942 0 00-1.545 2.054l.27 3.174a1.937 1.937 0 001.862 1.77l2.17.069a14.185 14.185 0 001.537 2.935l-1.212 1.83a1.93 1.93 0 00.363 2.541l2.433 2.055c.75.633 1.853.602 2.564-.07l1.591-1.49c1.043.486 2.14.85 3.267 1.066l.44 2.178a1.942 1.942 0 002.055 1.544l3.175-.27a1.934 1.934 0 001.769-1.861l.069-2.132a14.275 14.275 0 003.267-1.653l1.753 1.158a1.93 1.93 0 002.542-.363l2.054-2.433a1.925 1.925 0 00-.07-2.564l-1.413-1.498a13.909 13.909 0 001.112-3.445l1.931-.394a1.943 1.943 0 001.545-2.055l-.27-3.174a1.934 1.934 0 00-1.862-1.769l-1.938-.062a14.024 14.024 0 00-1.615-3.182l1.058-1.591a1.92 1.92 0 00-.347-2.549zM69.056 59.867a6.24 6.24 0 01-1.05-12.435 6.24 6.24 0 011.05 12.435zM29.834 68.41a1.93 1.93 0 00-1.73 1.9l-.023 1.954c-.016.98.71 1.815 1.684 1.939l1.436.185c.24.873.58 1.707 1.02 2.495l-.927 1.143a1.926 1.926 0 00.116 2.564l1.367 1.398c.687.703 1.784.78 2.564.178l1.151-.888a11.28 11.28 0 002.564 1.12l.155 1.483a1.93 1.93 0 001.9 1.73l1.954.023c.98.015 1.815-.71 1.939-1.684l.177-1.406c.974-.24 1.9-.602 2.78-1.081l1.082.873a1.926 1.926 0 002.565-.116l1.398-1.367c.703-.688.78-1.784.177-2.564l-.826-1.074a11.2 11.2 0 001.174-2.704l1.282-.13a1.93 1.93 0 001.73-1.9l.023-1.955a1.925 1.925 0 00-1.683-1.939l-1.252-.162a11.633 11.633 0 00-1.058-2.703l.78-.958a1.926 1.926 0 00-.116-2.564l-1.367-1.398a1.928 1.928 0 00-2.564-.178l-.935.718a11.36 11.36 0 00-2.811-1.22l-.124-1.213a1.93 1.93 0 00-1.9-1.73l-1.954-.023a1.925 1.925 0 00-1.939 1.684l-.154 1.205c-1.02.262-2 .664-2.912 1.19l-.965-.789a1.926 1.926 0 00-2.565.116l-1.406 1.375a1.928 1.928 0 00-.177 2.564l.826 1.066c-.479.85-.857 1.754-1.104 2.704l-1.352.139zm12.613-2.21c2.804.031 5.051 2.341 5.02 5.145-.03 2.803-2.34 5.051-5.143 5.02-2.804-.03-5.052-2.34-5.021-5.144.031-2.804 2.34-5.051 5.144-5.02z" fill="#fff"/></svg>