<svg width="100" height="100" fill="none" xmlns="http://www.w3.org/2000/svg"><path d="M55.384 12.5c.505.244.961.561 1.35.94.778.854 1.887 1.412 3.103 1.56 1.28-.147 2.45-.728 3.271-1.625a6.43 6.43 0 011.173-.875c.286.011 1.034.643 1.437.982.749.833 1.825 1.377 3.006 1.518 1.363-.156 2.61-.771 3.488-1.722.34-.288.855-.724.956-.778.745 0 .916.223 1.374.818.603 1.025 1.78 1.67 3.07 1.682.766 0 1.388-.56 1.388-1.25s-.622-1.25-1.389-1.25c-.278 0-.332-.017-.783-.603-.737-1.193-2.145-1.921-3.66-1.896-1.124.14-2.146.66-2.858 1.455-.461.39-1.235 1.044-1.528 1.05a5.564 5.564 0 01-1.169-.848c-.835-.915-2.027-1.508-3.332-1.657-1.204.147-2.3.699-3.07 1.544-.39.376-.84.698-1.335.955a5.352 5.352 0 01-1.25-.887c-.811-.887-1.967-1.463-3.232-1.612-.767-.003-1.391.555-1.394 1.245-.003.69.617 1.252 1.384 1.254zM42 76h2v6h-2v-6zm-23 0h3v6h-3v-6zm12 0h2v6h-2v-6z" fill="#fff"/><path d="M89 90V60.697H65.321c-.77 0-1.392-.625-1.392-1.395v-6.864l-11.666 9.35A1.392 1.392 0 0150 60.697v-8.26l-11.665 9.35a1.392 1.392 0 01-2.264-1.09v-8.26l-11.665 9.35a1.392 1.392 0 01-2.263-1.09V52L11 58.697V90h41.786V71.86c0-.77.623-1.395 1.393-1.395H65.32c.77 0 1.393.625 1.393 1.395V90H89zm-64.071-6.977c0 .77-.624 1.395-1.393 1.395h-5.572c-.77 0-1.393-.624-1.393-1.395v-8.372c0-.77.623-1.395 1.393-1.395h5.572c.769 0 1.393.624 1.393 1.395v8.372zm11.142 0c0 .77-.623 1.395-1.392 1.395h-5.572c-.77 0-1.393-.624-1.393-1.395v-8.372c0-.77.623-1.395 1.393-1.395h5.572c.769 0 1.392.624 1.392 1.395v8.372zm11.143 0c0 .77-.623 1.395-1.393 1.395H40.25c-.77 0-1.393-.624-1.393-1.395v-8.372c0-.77.623-1.395 1.393-1.395h5.571c.77 0 1.393.624 1.393 1.395v8.372z" fill="#fff"/><path d="M56 74h8v16h-8V74zm18.608-53L72 58h11l-2.608-37h-5.784z" fill="#fff"/></svg>