<svg width="100" height="100" fill="none" xmlns="http://www.w3.org/2000/svg"><path d="M91.627 51.276L83.752 38.15a2.62 2.62 0 00-2.252-1.276H65.75V29a2.626 2.626 0 00-2.625-2.625h-36.75A2.626 2.626 0 0023.75 29v2.625H10.625a2.626 2.626 0 000 5.25H23.75v5.25h-7.875a2.626 2.626 0 000 5.25h7.875v5.25h-2.625a2.626 2.626 0 000 5.25h2.625v7.875a2.626 2.626 0 002.625 2.625h8.358c1.087 3.05 3.974 5.25 7.392 5.25s6.305-2.2 7.392-5.25h21.966c1.087 3.05 3.974 5.25 7.392 5.25s6.305-2.2 7.392-5.25h3.108A2.626 2.626 0 0092 65.75V52.625c0-.478-.126-.945-.373-1.35zM42.125 68.375A2.63 2.63 0 0139.5 65.75a2.63 2.63 0 012.625-2.625 2.63 2.63 0 012.625 2.625 2.63 2.63 0 01-2.625 2.625zm36.75 0a2.633 2.633 0 01-2.625-2.625 2.633 2.633 0 012.625-2.625A2.633 2.633 0 0181.5 65.75a2.633 2.633 0 01-2.625 2.625zM71 52.625v-10.5h9.014l6.3 10.5H71z" fill="#fff"/></svg>