<svg width="23" height="19" fill="none" xmlns="http://www.w3.org/2000/svg"><path d="M.5.5h17.168l4.766 9-4.766 9H.5V.5z" stroke="#3E7850"/><g clip-path="url(#clip0_1124_374)" fill="#3E7850"><path d="M15.782 8.918l-1.97-1.97V4.672a.745.745 0 00-1.49 0v.785L10.853 3.99c-.725-.725-1.986-.723-2.71.002L3.218 8.918a.746.746 0 001.054 1.054l4.926-4.927a.44.44 0 01.603 0l4.927 4.927a.743.743 0 001.054 0 .745.745 0 000-1.054z"/><path d="M9.759 6.46a.366.366 0 00-.518 0l-4.333 4.33a.367.367 0 00-.107.26v3.16c0 .74.601 1.342 1.342 1.342H8.29V12.23h2.422v3.323h2.145c.742 0 1.343-.601 1.343-1.343v-3.16a.365.365 0 00-.107-.259L9.758 6.46z"/></g><defs><clipPath id="clip0_1124_374"><path fill="#fff" transform="translate(3 3)" d="M0 0h13v13H0z"/></clipPath></defs></svg>