<svg width="20" height="20" fill="none" xmlns="http://www.w3.org/2000/svg"><path d="M19.552 15.806l-3.09-3.09c-.614-.612-1.633-.593-2.27.044l-1.556 1.555-.307-.17c-.982-.545-2.328-1.291-3.743-2.708-1.42-1.419-2.166-2.766-2.712-3.75-.058-.103-.113-.204-.168-.3l1.045-1.042.513-.514c.638-.638.655-1.656.042-2.27L4.216.47c-.613-.614-1.632-.595-2.27.043l-.87.875.024.024a5.034 5.034 0 00-.718 1.265A5.27 5.27 0 00.063 3.96c-.408 3.381 1.137 6.471 5.33 10.665 5.797 5.795 10.467 5.357 10.669 5.336.439-.052.86-.157 1.287-.323.46-.18.888-.423 1.26-.715l.02.017.881-.863c.637-.638.655-1.657.042-2.272z" fill="#3E7850"/></svg>